PathFileType	4	(X/Y/Z)	 s06c0403.trc
DataRate	CameraRate	NumFrames	NumMarkers	Units	OrigDataRate	OrigDataStartFrame	OrigNumFrames
200	200	6	48	mm	200	1	2000
Frame#	Time	racr			lacr			c7			jug			rlel			rdr			llel			ldr			s2			lic			ric			lasi			rasi			rpsi			lpsi			rgt			lgt			rth1			rth2			rth3			rth4			rlfc			rmfc			rsh1			rsh2			rsh3			rsh4			rlmal			rcal			rtoe			rmt5			lth1			lth2			lth4			lth3			llfc			lmfc			llmal			lcal			lmt5			lsh1			lsh2			lsh3			lsh4			ltoe			SBIKE			LBIKE			RBIKE			
		X1	Y1	Z1	X2	Y2	Z2	X3	Y3	Z3	X4	Y4	Z4	X5	Y5	Z5	X6	Y6	Z6	X7	Y7	Z7	X8	Y8	Z8	X9	Y9	Z9	X10	Y10	Z10	X11	Y11	Z11	X12	Y12	Z12	X13	Y13	Z13	X14	Y14	Z14	X15	Y15	Z15	X16	Y16	Z16	X17	Y17	Z17	X18	Y18	Z18	X19	Y19	Z19	X20	Y20	Z20	X21	Y21	Z21	X22	Y22	Z22	X23	Y23	Z23	X24	Y24	Z24	X25	Y25	Z25	X26	Y26	Z26	X27	Y27	Z27	X28	Y28	Z28	X29	Y29	Z29	X30	Y30	Z30	X31	Y31	Z31	X32	Y32	Z32	X33	Y33	Z33	X34	Y34	Z34	X35	Y35	Z35	X36	Y36	Z36	X37	Y37	Z37	X38	Y38	Z38	X39	Y39	Z39	X40	Y40	Z40	X41	Y41	Z41	X42	Y42	Z42	X43	Y43	Z43	X44	Y44	Z44	X45	Y45	Z45	X46	Y46	Z46	X47	Y47	Z47	X48	Y48	Z48	
1	0.0050	442.404325	1333.533331	-47.602791	457.801166	1333.766480	-384.255503	438.035588	1438.314180	-212.945177	462.073931	1282.289066	-210.192188	471.384343	1068.209298	32.091676	673.779438	938.679148	-29.725177	464.487688	1066.111512	-462.130822	630.905119	837.186026	-425.898158	-42.204287	1150.518021	-208.735114	135.525201	1100.649042	-371.564142	117.839483	1105.800595	-36.623701	141.370518	1038.003904	-338.620094	135.252332	1050.047749	-67.540754	-6.567940	1180.882671	-173.624683	-6.543185	1180.144156	-235.168966	68.838374	1045.495812	1.315587	90.287701	1038.676852	-402.043602	163.574930	963.213497	-6.812939	248.286739	930.374651	-12.882817	301.875732	862.333662	-18.644451	266.049777	959.524132	-30.245462	362.079873	774.339823	-42.086336	355.184051	749.189788	-152.309186	330.330619	656.291436	-13.489215	325.428828	570.374784	-33.848649	281.769922	495.112454	-34.443781	344.935047	568.637291	-68.081288	252.654188	413.242531	-39.316514	191.045736	375.999809	-87.960091	466.276950	390.281341	-97.611779	375.677105	357.054245	-24.215971	134.453138	929.252663	-408.053343	202.675400	877.043144	-400.467538	230.935908	897.761397	-387.535986	236.300327	793.462811	-395.368676	264.055790	682.966698	-369.675809	258.205416	665.230927	-253.216764	2.901492	415.754135	-374.430628	-72.913770	428.383776	-329.797491	72.800910	292.952492	-395.662647	197.028140	600.938249	-395.020625	153.282847	527.401502	-378.080458	77.198176	480.425564	-381.726086	170.196985	514.971449	-345.221019	148.278421	254.880223	-334.958564	-205.259949	866.839694	-202.809657	-52.341984	83.930904	-410.176518	-50.620514	79.698802	-12.746292	
2	0.0100	442.365814	1333.528144	-47.628739	457.788595	1333.755509	-384.283697	437.995209	1438.323155	-212.937335	462.046844	1282.276563	-210.213601	471.382157	1068.207881	32.068082	673.768273	938.686563	-29.716371	464.453202	1066.075852	-462.131232	630.895847	837.277504	-425.878671	-42.230633	1150.503859	-208.727645	135.478200	1100.656989	-371.555874	117.815715	1105.862293	-36.603090	141.334986	1038.018079	-338.648947	135.310018	1050.145784	-67.539659	-6.586415	1180.875278	-173.632852	-6.567437	1180.135185	-235.171376	68.856379	1045.458748	1.296002	90.235255	1038.676638	-402.037683	163.579020	963.185150	-6.798280	248.280463	930.319539	-12.888280	301.885489	862.280291	-18.635543	266.051732	959.472558	-30.240368	362.084704	774.287051	-42.059213	355.182229	749.134581	-152.292781	330.317420	656.253078	-13.472429	325.418920	570.330770	-33.847721	281.754560	495.077050	-34.446910	344.918185	568.574219	-68.069487	252.632388	413.184538	-39.320957	191.042475	375.947833	-87.955998	466.272652	390.275916	-97.617804	375.690611	357.023364	-24.223941	134.400007	929.265005	-408.060436	202.647073	877.069386	-400.515455	230.909573	897.783403	-387.561430	236.292977	793.479772	-395.409504	264.063961	682.992534	-369.737780	258.224956	665.233969	-253.251864	2.907074	415.783241	-374.434919	-72.916316	428.401547	-329.791769	72.777973	292.974351	-395.671498	197.033937	600.954675	-395.051799	153.291398	527.404716	-378.100376	77.186588	480.440333	-381.749404	170.200445	514.971833	-345.249474	148.270181	254.876034	-334.941638	-205.265121	866.849320	-202.805398	-52.334007	83.934674	-410.184860	-50.654923	79.760802	-12.742833	
3	0.0150	442.351475	1333.508631	-47.655155	457.764978	1333.735185	-384.296232	437.969464	1438.332704	-212.975311	461.976242	1282.305033	-210.225368	471.375906	1068.203686	32.038874	673.773989	938.693676	-29.703079	464.423445	1066.039743	-462.125235	630.909741	837.275588	-425.891555	-42.248504	1150.484172	-208.718560	135.420117	1100.667578	-371.568316	117.823028	1105.855666	-36.611796	141.298837	1038.029633	-338.613862	135.313224	1050.139747	-67.551749	-6.605495	1180.860517	-173.611400	-6.600310	1180.134851	-235.152555	68.863190	1045.448829	1.293839	90.204018	1038.682169	-402.053409	163.576717	963.153030	-6.800354	248.282414	930.256830	-12.892164	301.872463	862.209292	-18.659095	266.060198	959.425968	-30.247404	362.133683	774.279301	-42.026993	355.166581	749.069699	-152.274567	330.296646	656.199310	-13.478490	325.393297	570.293290	-33.856067	281.740871	495.012988	-34.434329	344.894653	568.532975	-68.085850	252.606342	413.151763	-39.312885	191.002905	375.910120	-87.940115	466.237769	390.291631	-97.619876	375.676955	357.023915	-24.210998	134.360355	929.285355	-408.081796	202.617487	877.093281	-400.547983	230.875163	897.814510	-387.586211	236.279315	793.512176	-395.479992	264.061862	683.001488	-369.792442	258.263004	665.259196	-253.301226	2.920075	415.787384	-374.425929	-72.891305	428.422327	-329.789015	72.798147	292.961118	-395.667040	197.022310	600.965806	-395.081358	153.301754	527.418530	-378.124385	77.211492	480.443225	-381.758426	170.218150	514.978082	-345.268168	148.275748	254.858431	-334.952615	-205.273639	866.851935	-202.816747	-52.335095	83.950510	-410.182636	-50.760243	80.037395	-12.551104	
4	0.0200	443.135786	1333.564404	-47.499424	457.764995	1333.721219	-384.341973	437.934889	1438.341270	-213.012733	461.956089	1282.310945	-210.263724	471.683914	1068.123101	32.126335	673.782240	938.692795	-29.694109	464.404531	1066.012263	-462.125096	630.913205	837.251296	-425.890970	-43.130267	1151.297614	-206.061687	135.391793	1100.671438	-371.563753	117.840882	1105.799364	-36.655326	141.266716	1038.067967	-338.668666	135.345382	1050.096502	-67.610697	-6.775674	1180.785957	-173.649512	-6.596248	1180.112073	-235.135282	68.845624	1045.364120	1.224417	90.177395	1038.752295	-402.053563	163.585122	963.128804	-6.792907	248.170736	930.074100	-12.951876	301.874585	862.182652	-18.644900	265.960774	959.043054	-30.522038	362.046577	774.194037	-42.045232	355.292690	748.866061	-152.341937	330.124788	656.093304	-13.351606	325.234276	570.246608	-34.019949	281.717372	495.002846	-34.425238	344.907014	568.325233	-68.172323	253.138669	412.609929	-39.650886	189.920383	376.737804	-87.392059	466.214069	390.334774	-97.608922	375.661936	357.023066	-24.215235	134.325075	929.289547	-408.071020	202.862044	876.388295	-400.298889	230.799085	897.740330	-387.456905	236.220854	793.461333	-395.510939	264.144407	682.884257	-369.904854	258.268877	665.278645	-253.336866	2.963227	415.786249	-374.422240	-72.843385	428.452694	-329.803434	72.802276	292.948665	-395.665319	197.178655	600.891813	-395.165636	153.214273	527.296560	-378.179881	77.021702	481.216583	-382.939617	169.593108	514.353579	-344.455584	148.276048	254.830341	-334.957355	-205.316714	866.820741	-202.904616	-52.336665	83.950989	-410.173439	-50.744514	80.024282	-12.562126	
5	0.0250	442.816344	1333.987842	-47.434933	457.634082	1333.882770	-384.261655	437.967137	1438.416872	-212.981435	461.828686	1282.692843	-210.225015	471.445616	1068.457629	32.226943	673.760579	938.913704	-29.494496	464.237848	1066.072018	-462.064192	630.933170	837.356020	-425.885678	-43.275948	1151.288327	-206.000366	135.400132	1100.502954	-371.732842	117.819303	1106.049278	-36.720183	141.311998	1038.086834	-338.561803	135.280068	1050.244835	-67.516888	-6.852683	1180.379223	-173.463836	-6.874209	1180.045345	-235.014137	68.751191	1045.685237	1.431370	90.005180	1039.049925	-402.021603	163.572434	963.452532	-6.638577	248.084518	930.330965	-12.918603	301.981169	862.531159	-17.460194	265.969197	959.038063	-30.608485	361.881861	774.394445	-41.847862	355.075037	749.129597	-152.080189	329.765911	656.382018	-12.747036	325.156258	570.469857	-33.879189	281.505857	495.141958	-34.176348	344.831192	568.606695	-68.138518	252.914861	412.915462	-39.475549	189.841673	376.676145	-87.577211	466.165028	390.635347	-97.483028	375.500949	357.366447	-24.131147	134.190430	929.339850	-407.993610	202.844991	876.400763	-400.418523	230.734244	897.807177	-387.617691	236.244711	793.515142	-395.730142	263.923565	683.162616	-369.817433	258.048816	665.678045	-252.738919	3.033280	415.848492	-374.572192	-72.762542	428.485895	-329.716582	72.818635	293.050681	-395.897977	196.935591	601.210947	-395.115444	153.006005	527.629815	-378.088332	76.827175	481.304915	-383.166301	169.859305	514.499075	-344.715685	148.335934	255.116317	-335.288583	-205.291239	866.763125	-202.970275	-52.453602	84.197183	-410.141386	-50.896427	80.425804	-12.237856	
6	0.0300	442.746067	1334.055868	-47.473784	457.595770	1333.883730	-384.302081	437.937037	1438.418782	-212.995077	461.789984	1282.731005	-210.296122	471.432448	1068.510930	32.222375	673.791538	938.961306	-29.479226	464.266091	1066.148505	-462.180259	630.961525	837.245039	-425.897096	-43.306201	1151.264336	-205.963132	135.296025	1100.750457	-371.612762	117.829756	1105.993185	-36.762161	141.286702	1038.125050	-338.598344	135.145389	1050.154795	-67.579272	-6.647117	1180.822886	-173.649626	-6.832602	1180.331312	-234.868174	68.762570	1045.706151	1.470950	89.954098	1039.097156	-402.049605	163.580589	963.466851	-6.637625	248.064193	930.353564	-12.918444	301.891753	862.482064	-18.559477	265.969193	959.033759	-30.625067	361.882184	774.474721	-41.913524	355.043787	749.162882	-152.091693	329.848563	656.368091	-13.250437	325.116039	570.489519	-33.889324	281.536692	495.240664	-34.345596	344.794964	568.617625	-68.169697	252.861350	412.816540	-39.572318	189.869647	376.809852	-87.265772	466.120609	390.716122	-97.469370	375.396333	357.404429	-24.063298	134.162348	929.472078	-407.993585	202.806449	876.461406	-400.395427	230.691919	897.870723	-387.599041	236.149563	793.590945	-395.644574	264.010710	683.202953	-370.017506	257.987988	665.621592	-253.275422	3.016666	415.766489	-374.518906	-72.682718	428.418143	-329.806095	72.774781	292.953256	-395.840320	196.984719	601.223660	-395.251601	153.027882	527.653760	-378.123117	77.307859	481.046094	-382.665854	169.915959	514.526724	-344.787983	148.193502	254.833740	-335.141915	-205.270896	866.812653	-202.913285	-52.253425	83.976973	-410.198068	-50.876745	80.160678	-12.821889	
